<svg xmlns="http://www.w3.org/2000/svg" viewBox="0 0 96 96">
  <defs>
    <linearGradient id="g" x1="0" y1="0" x2="1" y2="1">
      <stop offset="0" stop-color="#4DE1C1"/>
      <stop offset="1" stop-color="#5B8CFF"/>
    </linearGradient>
  </defs>
  <rect x="8" y="8" width="80" height="80" rx="18" fill="rgba(255,255,255,.04)" stroke="rgba(255,255,255,.12)" />
  <path d="M62 30c-4-4-9-6-14-6-12 0-22 10-22 22s10 22 22 22c7 0 13-3 17-8l-8-6c-2 2-5 4-9 4-7 0-12-5-12-12s5-12 12-12c3 0 6 1 8 3l-6 7h18V28L62 30z" fill="url(#g)"/>
</svg>